--40002LOG 15:24:57:525649822 Waiting for file /home/seluser/videos/vid_chrome_or_firefox_40002* to be created...
Won't start video recording due to VIDEO env var false
ffmpeg version 2.8.15-0ubuntu0.16.04.1 Copyright (c) 2000-2018 the FFmpeg developers
  built with gcc 5.4.0 (Ubuntu 5.4.0-6ubuntu1~16.04.10) 20160609
  configuration: --prefix=/usr --extra-version=0ubuntu0.16.04.1 --build-suffix=-ffmpeg --toolchain=hardened --libdir=/usr/lib/x86_64-linux-gnu --incdir=/usr/include/x86_64-linux-gnu --cc=cc --cxx=g++ --enable-gpl --enable-shared --disable-stripping --disable-decoder=libopenjpeg --disable-decoder=libschroedinger --enable-avresample --enable-avisynth --enable-gnutls --enable-ladspa --enable-libass --enable-libbluray --enable-libbs2b --enable-libcaca --enable-libcdio --enable-libflite --enable-libfontconfig --enable-libfreetype --enable-libfribidi --enable-libgme --enable-libgsm --enable-libmodplug --enable-libmp3lame --enable-libopenjpeg --enable-libopus --enable-libpulse --enable-librtmp --enable-libschroedinger --enable-libshine --enable-libsnappy --enable-libsoxr --enable-libspeex --enable-libssh --enable-libtheora --enable-libtwolame --enable-libvorbis --enable-libvpx --enable-libwavpack --enable-libwebp --enable-libx265 --enable-libxvid --enable-libzvbi --enable-openal --enable-opengl --enable-x11grab --enable-libdc1394 --enable-libiec61883 --enable-libzmq --enable-frei0r --enable-libx264 --enable-libopencv
  libavutil      54. 31.100 / 54. 31.100
  libavcodec     56. 60.100 / 56. 60.100
  libavformat    56. 40.101 / 56. 40.101
  libavdevice    56.  4.100 / 56.  4.100
  libavfilter     5. 40.101 /  5. 40.101
  libavresample   2.  1.  0 /  2.  1.  0
  libswscale      3.  1.101 /  3.  1.101
  libswresample   1.  2.101 /  1.  2.101
  libpostproc    53.  3.100 / 53.  3.100
Input #0, x11grab, from ':45.0':
  Duration: N/A, start: 1578925497.957957, bitrate: N/A
    Stream #0:0: Video: rawvideo (BGR[0] / 0x524742), bgr0, 1920x1080, 29.97 fps, 29.97 tbr, 1000k tbn, 29.97 tbc
[libx264 @ 0xda90e0] using cpu capabilities: MMX2 SSE2Fast SSSE3 SSE4.2 AVX FMA3 AVX2 LZCNT BMI2
[libx264 @ 0xda90e0] profile Constrained Baseline, level 4.0
[libx264 @ 0xda90e0] 264 - core 148 r2643 5c65704 - H.264/MPEG-4 AVC codec - Copyleft 2003-2015 - http://www.videolan.org/x264.html - options: cabac=0 ref=1 deblock=0:0:0 analyse=0:0 me=dia subme=0 psy=1 psy_rd=1.00:0.00 mixed_ref=0 me_range=16 chroma_me=1 trellis=0 8x8dct=0 cqm=0 deadzone=21,11 fast_pskip=1 chroma_qp_offset=0 threads=3 lookahead_threads=1 sliced_threads=0 nr=0 decimate=1 interlaced=0 bluray_compat=0 constrained_intra=0 bframes=0 weightp=0 keyint=250 keyint_min=10 scenecut=0 intra_refresh=0 rc=crf mbtree=0 crf=23.0 qcomp=0.60 qpmin=0 qpmax=69 qpstep=4 ip_ratio=1.40 aq=0
Output #0, matroska, to '/home/seluser/videos/vid_chrome_or_firefox_40002.mkv':
  Metadata:
    encoder         : Lavf56.40.101
    Stream #0:0: Video: h264 (libx264) (H264 / 0x34363248), yuv420p, 1920x1080, q=-1--1, 10 fps, 1k tbn, 10 tbc
    Metadata:
      encoder         : Lavc56.60.100 libx264
Stream mapping:
  Stream #0:0 -> #0:0 (rawvideo (native) -> h264 (libx264))
Press [q] to stop, [?] for help
frame=    3 fps=2.8 q=0.0 size=       1kB time=00:00:00.00 bitrate=N/A    
frame=    9 fps=5.6 q=9.0 size=     112kB time=00:00:03.00 bitrate= 306.9kbits/s dup=0 drop=2    
frame=   14 fps=6.5 q=9.0 size=     114kB time=00:00:03.50 bitrate= 266.9kbits/s dup=0 drop=2    
frame=   19 fps=6.9 q=8.0 size=     114kB time=00:00:04.00 bitrate= 233.9kbits/s dup=0 drop=2    
frame=   25 fps=7.6 q=9.0 size=     121kB time=00:00:04.70 bitrate= 210.3kbits/s dup=0 drop=2    
frame=   30 fps=7.9 q=9.0 size=     121kB time=00:00:05.20 bitrate= 190.6kbits/s dup=0 drop=5    
frame=   36 fps=8.3 q=9.0 size=     122kB time=00:00:05.80 bitrate= 171.7kbits/s dup=0 drop=8    
frame=   40 fps=8.1 q=9.0 size=     122kB time=00:00:06.20 bitrate= 160.9kbits/s dup=0 drop=9    
frame=   45 fps=8.3 q=9.0 size=     123kB time=00:00:06.80 bitrate= 147.8kbits/s dup=0 drop=9    
frame=   50 fps=8.4 q=10.0 size=     123kB time=00:00:07.40 bitrate= 136.6kbits/s dup=0 drop=11    
frame=   55 fps=8.5 q=9.0 size=     128kB time=00:00:07.90 bitrate= 132.9kbits/s dup=0 drop=13    
--40002LOG 15:25:06:631588519 Trapped SIGTERM or SIGINT so shutting down ffmpeg gracefully...
--40002LOG 15:25:06:654199411 Will kill VID_TOOL_PID=1156 ...
frame=   59 fps=8.3 q=-1.0 Lsize=     129kB time=00:00:08.70 bitrate= 121.3kbits/s dup=0 drop=14    
video:128kB audio:0kB subtitle:0kB other streams:0kB global headers:0kB muxing overhead: 0.862049%
[libx264 @ 0xda90e0] frame I:1     Avg QP:20.00  size: 68126
[libx264 @ 0xda90e0] frame P:58    Avg QP: 9.16  size:  1069
[libx264 @ 0xda90e0] mb I  I16..4: 100.0%  0.0%  0.0%
[libx264 @ 0xda90e0] mb P  I16..4:  1.9%  0.0%  0.0%  P16..4:  0.3%  0.0%  0.0%  0.0%  0.0%    skip:97.8%
[libx264 @ 0xda90e0] coded y,uvDC,uvAC intra: 7.9% 3.5% 3.1% inter: 0.1% 0.1% 0.1%
[libx264 @ 0xda90e0] i16 v,h,dc,p: 90%  9%  1%  0%
[libx264 @ 0xda90e0] i8c dc,h,v,p: 92%  7%  1%  0%
[libx264 @ 0xda90e0] kb/s:119.67
Exiting normally, received signal 2.
--40002LOG 15:25:07:725692811 Tried to kill -SIGTERM VID_TOOL_PID=1156
--40002LOG 15:25:07:760444145 Waiting up to 6s for VID_TOOL_PID=1156 to end with SIGTERM...
--40002LOG 15:25:07:790645389 wait_pid successfully managed to SIGTERM:VID_TOOL_PID=1156 within less than 6s
--40002LOG 15:25:07:801932669 Will try to fix the videos...
--40002LOG 15:25:08:344847075 Fixing perms for /home/seluser/videos/vid_chrome_or_firefox_40002.mkv*
--40002LOG 15:25:08:465946375 Changing video encoding from mkv to mp4...
--40002LOG 15:25:13:081791574 Conversion from mkv to mp4 succeeded!
--40002LOG 15:25:13:098991467 Cleaning up /home/seluser/videos/vid_chrome_or_firefox_40002.mkv ...
--40002LOG 15:25:13:132959115 Optimizing /home/seluser/videos/vid_chrome_or_firefox_40002.mp4 for HTTP streaming...
--40002LOG 15:25:13:201448244 Succeeded to mp4box_retry.sh within 8s
--40002LOG 15:25:13:218235509 ffmpeg shutdown complete.
